G04 #@! TF.FileFunction,Soldermask,Bot*
%FSLAX46Y46*%
G04 Gerber Fmt 4.6, Leading zero omitted, Abs format (unit mm)*
G04 Created by KiCad (PCBNEW 4.0.2+dfsg1-stable) date Thu 29 Mar 2018 13:44:33 BST*
%MOMM*%
G01*
G04 APERTURE LIST*
%ADD10C,0.100000*%
%ADD11R,2.032000X1.727200*%
%ADD12O,2.032000X1.727200*%
%ADD13R,1.399540X1.399540*%
%ADD14C,1.399540*%
%ADD15C,1.320800*%
G04 APERTURE END LIST*
D10*
D11*
X170180000Y-137160000D03*
D12*
X170180000Y-134620000D03*
X170180000Y-132080000D03*
X170180000Y-129540000D03*
X170180000Y-127000000D03*
X170180000Y-124460000D03*
X170180000Y-121920000D03*
X170180000Y-119380000D03*
X170180000Y-116840000D03*
X170180000Y-114300000D03*
X170180000Y-111760000D03*
X170180000Y-109220000D03*
X170180000Y-106680000D03*
X170180000Y-104140000D03*
X170180000Y-101600000D03*
X170180000Y-99060000D03*
D11*
X193040000Y-99060000D03*
D12*
X193040000Y-101600000D03*
X193040000Y-104140000D03*
X193040000Y-106680000D03*
X193040000Y-109220000D03*
X193040000Y-111760000D03*
X193040000Y-114300000D03*
X193040000Y-116840000D03*
X193040000Y-119380000D03*
X193040000Y-121920000D03*
X193040000Y-124460000D03*
X193040000Y-127000000D03*
X193040000Y-129540000D03*
X193040000Y-132080000D03*
X193040000Y-134620000D03*
X193040000Y-137160000D03*
D13*
X177800000Y-99060000D03*
D14*
X177800000Y-101600000D03*
X177800000Y-104140000D03*
X177800000Y-106680000D03*
X177800000Y-109220000D03*
X177800000Y-111760000D03*
X177800000Y-114300000D03*
X177800000Y-116840000D03*
X177800000Y-119380000D03*
X177800000Y-121920000D03*
X177800000Y-124460000D03*
X177800000Y-127000000D03*
X177800000Y-129540000D03*
X177800000Y-132080000D03*
X185420000Y-132080000D03*
X185420000Y-129540000D03*
X185420000Y-127000000D03*
X185420000Y-124460000D03*
X185420000Y-121920000D03*
X185420000Y-119380000D03*
X185420000Y-116840000D03*
X185420000Y-114300000D03*
X185420000Y-111760000D03*
X185420000Y-109220000D03*
X185420000Y-106680000D03*
X185420000Y-104140000D03*
X185420000Y-101600000D03*
X185420000Y-99060000D03*
D15*
X179197000Y-137160000D03*
X184023000Y-137160000D03*
M02*
