M48
;DRILL file {KiCad 4.0.2+dfsg1-stable} date Thu 29 Mar 2018 13:46:37 BST
;FORMAT={3:3/ absolute / metric / suppress leading zeros}
FMAT,2
METRIC,TZ
T1C0.400
T2C0.813
T3C0.899
T4C1.016
%
G90
G05
M71
T1
X175895Y-140970
X187325Y-140970
X187960Y-93980
T2
X179197Y-137160
X184023Y-137160
T3
X177800Y-99060
X177800Y-101600
X177800Y-104140
X177800Y-106680
X177800Y-109220
X177800Y-111760
X177800Y-114300
X177800Y-116840
X177800Y-119380
X177800Y-121920
X177800Y-124460
X177800Y-127000
X177800Y-129540
X177800Y-132080
X185420Y-99060
X185420Y-101600
X185420Y-104140
X185420Y-106680
X185420Y-109220
X185420Y-111760
X185420Y-114300
X185420Y-116840
X185420Y-119380
X185420Y-121920
X185420Y-124460
X185420Y-127000
X185420Y-129540
X185420Y-132080
T4
X170180Y-99060
X170180Y-101600
X170180Y-104140
X170180Y-106680
X170180Y-109220
X170180Y-111760
X170180Y-114300
X170180Y-116840
X170180Y-119380
X170180Y-121920
X170180Y-124460
X170180Y-127000
X170180Y-129540
X170180Y-132080
X170180Y-134620
X170180Y-137160
X193040Y-99060
X193040Y-101600
X193040Y-104140
X193040Y-106680
X193040Y-109220
X193040Y-111760
X193040Y-114300
X193040Y-116840
X193040Y-119380
X193040Y-121920
X193040Y-124460
X193040Y-127000
X193040Y-129540
X193040Y-132080
X193040Y-134620
X193040Y-137160
T0
M30
