G04 #@! TF.FileFunction,Copper,L1,Top,Signal*
%FSLAX46Y46*%
G04 Gerber Fmt 4.6, Leading zero omitted, Abs format (unit mm)*
G04 Created by KiCad (PCBNEW 4.0.2+dfsg1-stable) date Thu 29 Mar 2018 13:44:33 BST*
%MOMM*%
G01*
G04 APERTURE LIST*
%ADD10C,0.100000*%
%ADD11R,2.032000X1.727200*%
%ADD12O,2.032000X1.727200*%
%ADD13R,0.998220X0.698500*%
%ADD14R,1.399540X1.399540*%
%ADD15C,1.399540*%
%ADD16C,1.320800*%
%ADD17R,0.800000X0.750000*%
%ADD18R,0.900000X0.500000*%
%ADD19C,0.600000*%
%ADD20C,0.250000*%
%ADD21C,0.254000*%
G04 APERTURE END LIST*
D10*
D11*
X170180000Y-137160000D03*
D12*
X170180000Y-134620000D03*
X170180000Y-132080000D03*
X170180000Y-129540000D03*
X170180000Y-127000000D03*
X170180000Y-124460000D03*
X170180000Y-121920000D03*
X170180000Y-119380000D03*
X170180000Y-116840000D03*
X170180000Y-114300000D03*
X170180000Y-111760000D03*
X170180000Y-109220000D03*
X170180000Y-106680000D03*
X170180000Y-104140000D03*
X170180000Y-101600000D03*
X170180000Y-99060000D03*
D11*
X193040000Y-99060000D03*
D12*
X193040000Y-101600000D03*
X193040000Y-104140000D03*
X193040000Y-106680000D03*
X193040000Y-109220000D03*
X193040000Y-111760000D03*
X193040000Y-114300000D03*
X193040000Y-116840000D03*
X193040000Y-119380000D03*
X193040000Y-121920000D03*
X193040000Y-124460000D03*
X193040000Y-127000000D03*
X193040000Y-129540000D03*
X193040000Y-132080000D03*
X193040000Y-134620000D03*
X193040000Y-137160000D03*
D13*
X178610260Y-92130880D03*
X184609740Y-92130880D03*
X178610260Y-95829120D03*
X184609740Y-95829120D03*
D14*
X177800000Y-99060000D03*
D15*
X177800000Y-101600000D03*
X177800000Y-104140000D03*
X177800000Y-106680000D03*
X177800000Y-109220000D03*
X177800000Y-111760000D03*
X177800000Y-114300000D03*
X177800000Y-116840000D03*
X177800000Y-119380000D03*
X177800000Y-121920000D03*
X177800000Y-124460000D03*
X177800000Y-127000000D03*
X177800000Y-129540000D03*
X177800000Y-132080000D03*
X185420000Y-132080000D03*
X185420000Y-129540000D03*
X185420000Y-127000000D03*
X185420000Y-124460000D03*
X185420000Y-121920000D03*
X185420000Y-119380000D03*
X185420000Y-116840000D03*
X185420000Y-114300000D03*
X185420000Y-111760000D03*
X185420000Y-109220000D03*
X185420000Y-106680000D03*
X185420000Y-104140000D03*
X185420000Y-101600000D03*
X185420000Y-99060000D03*
D16*
X179197000Y-137160000D03*
X184023000Y-137160000D03*
D17*
X179705000Y-140970000D03*
X178205000Y-140970000D03*
X183515000Y-140970000D03*
X185015000Y-140970000D03*
D18*
X175260000Y-97560000D03*
X175260000Y-99060000D03*
D19*
X187325000Y-140970000D03*
X175895000Y-140970000D03*
X187960000Y-93980000D03*
D20*
X179705000Y-140970000D02*
X179705000Y-137668000D01*
X179705000Y-137668000D02*
X179197000Y-137160000D01*
X177800000Y-121920000D02*
X179197000Y-123317000D01*
X179197000Y-123317000D02*
X179197000Y-137160000D01*
X185015000Y-140970000D02*
X187325000Y-140970000D01*
X178205000Y-140970000D02*
X175895000Y-140970000D01*
X178610260Y-95829120D02*
X184609740Y-95829120D01*
X184609740Y-95829120D02*
X186110880Y-95829120D01*
X186110880Y-95829120D02*
X187960000Y-93980000D01*
X183515000Y-140970000D02*
X183515000Y-137668000D01*
X183515000Y-137668000D02*
X184023000Y-137160000D01*
X177800000Y-119380000D02*
X184023000Y-125603000D01*
X184023000Y-125603000D02*
X184023000Y-137160000D01*
X177800000Y-132080000D02*
X170180000Y-132080000D01*
X177800000Y-129540000D02*
X170180000Y-129540000D01*
X177800000Y-127000000D02*
X170180000Y-127000000D01*
X177800000Y-124460000D02*
X170180000Y-124460000D01*
X177800000Y-111760000D02*
X170180000Y-111760000D01*
X177800000Y-109220000D02*
X170180000Y-109220000D01*
X177800000Y-106680000D02*
X170180000Y-106680000D01*
X177800000Y-104140000D02*
X170180000Y-104140000D01*
X177800000Y-101600000D02*
X170180000Y-101600000D01*
X178610260Y-92130880D02*
X184609740Y-92130880D01*
X170180000Y-99060000D02*
X170332400Y-99060000D01*
X170332400Y-99060000D02*
X177261520Y-92130880D01*
X177261520Y-92130880D02*
X177861150Y-92130880D01*
X177861150Y-92130880D02*
X178610260Y-92130880D01*
X175260000Y-99060000D02*
X170180000Y-99060000D01*
X177800000Y-99060000D02*
X175260000Y-99060000D01*
X185420000Y-99060000D02*
X193040000Y-99060000D01*
X185420000Y-101600000D02*
X193040000Y-101600000D01*
X185420000Y-104140000D02*
X193040000Y-104140000D01*
X185420000Y-106680000D02*
X193040000Y-106680000D01*
X185420000Y-109220000D02*
X193040000Y-109220000D01*
X185420000Y-111760000D02*
X193040000Y-111760000D01*
X185420000Y-116840000D02*
X193040000Y-116840000D01*
X185420000Y-121920000D02*
X193040000Y-121920000D01*
X185420000Y-124460000D02*
X193040000Y-124460000D01*
X185420000Y-127000000D02*
X193040000Y-127000000D01*
X185420000Y-129540000D02*
X193040000Y-129540000D01*
X185420000Y-132080000D02*
X193040000Y-132080000D01*
D21*
G36*
X195453000Y-142113000D02*
X167767000Y-142113000D01*
X167767000Y-99060000D01*
X168496655Y-99060000D01*
X168610729Y-99633489D01*
X168935585Y-100119670D01*
X169250366Y-100330000D01*
X168935585Y-100540330D01*
X168610729Y-101026511D01*
X168496655Y-101600000D01*
X168610729Y-102173489D01*
X168935585Y-102659670D01*
X169250366Y-102870000D01*
X168935585Y-103080330D01*
X168610729Y-103566511D01*
X168496655Y-104140000D01*
X168610729Y-104713489D01*
X168935585Y-105199670D01*
X169250366Y-105410000D01*
X168935585Y-105620330D01*
X168610729Y-106106511D01*
X168496655Y-106680000D01*
X168610729Y-107253489D01*
X168935585Y-107739670D01*
X169250366Y-107950000D01*
X168935585Y-108160330D01*
X168610729Y-108646511D01*
X168496655Y-109220000D01*
X168610729Y-109793489D01*
X168935585Y-110279670D01*
X169250366Y-110490000D01*
X168935585Y-110700330D01*
X168610729Y-111186511D01*
X168496655Y-111760000D01*
X168610729Y-112333489D01*
X168935585Y-112819670D01*
X169250366Y-113030000D01*
X168935585Y-113240330D01*
X168610729Y-113726511D01*
X168496655Y-114300000D01*
X168610729Y-114873489D01*
X168935585Y-115359670D01*
X169250366Y-115570000D01*
X168935585Y-115780330D01*
X168610729Y-116266511D01*
X168496655Y-116840000D01*
X168610729Y-117413489D01*
X168935585Y-117899670D01*
X169250366Y-118110000D01*
X168935585Y-118320330D01*
X168610729Y-118806511D01*
X168496655Y-119380000D01*
X168610729Y-119953489D01*
X168935585Y-120439670D01*
X169250366Y-120650000D01*
X168935585Y-120860330D01*
X168610729Y-121346511D01*
X168496655Y-121920000D01*
X168610729Y-122493489D01*
X168935585Y-122979670D01*
X169250366Y-123190000D01*
X168935585Y-123400330D01*
X168610729Y-123886511D01*
X168496655Y-124460000D01*
X168610729Y-125033489D01*
X168935585Y-125519670D01*
X169250366Y-125730000D01*
X168935585Y-125940330D01*
X168610729Y-126426511D01*
X168496655Y-127000000D01*
X168610729Y-127573489D01*
X168935585Y-128059670D01*
X169250366Y-128270000D01*
X168935585Y-128480330D01*
X168610729Y-128966511D01*
X168496655Y-129540000D01*
X168610729Y-130113489D01*
X168935585Y-130599670D01*
X169250366Y-130810000D01*
X168935585Y-131020330D01*
X168610729Y-131506511D01*
X168496655Y-132080000D01*
X168610729Y-132653489D01*
X168935585Y-133139670D01*
X169250366Y-133350000D01*
X168935585Y-133560330D01*
X168610729Y-134046511D01*
X168496655Y-134620000D01*
X168610729Y-135193489D01*
X168935585Y-135679670D01*
X168949913Y-135689243D01*
X168928683Y-135693238D01*
X168712559Y-135832310D01*
X168567569Y-136044510D01*
X168516560Y-136296400D01*
X168516560Y-138023600D01*
X168560838Y-138258917D01*
X168699910Y-138475041D01*
X168912110Y-138620031D01*
X169164000Y-138671040D01*
X171196000Y-138671040D01*
X171431317Y-138626762D01*
X171647441Y-138487690D01*
X171792431Y-138275490D01*
X171843440Y-138023600D01*
X171843440Y-136296400D01*
X171799162Y-136061083D01*
X171660090Y-135844959D01*
X171447890Y-135699969D01*
X171406561Y-135691600D01*
X171424415Y-135679670D01*
X171749271Y-135193489D01*
X171863345Y-134620000D01*
X171749271Y-134046511D01*
X171424415Y-133560330D01*
X171109634Y-133350000D01*
X171424415Y-133139670D01*
X171624648Y-132840000D01*
X176672669Y-132840000D01*
X177042926Y-133210903D01*
X177533333Y-133414538D01*
X178064337Y-133415001D01*
X178437000Y-133261020D01*
X178437000Y-136088300D01*
X178099454Y-136425257D01*
X177901826Y-136901199D01*
X177901376Y-137416540D01*
X178098173Y-137892826D01*
X178462257Y-138257546D01*
X178938199Y-138455174D01*
X178945000Y-138455180D01*
X178945000Y-140058772D01*
X178856890Y-139998569D01*
X178605000Y-139947560D01*
X177805000Y-139947560D01*
X177569683Y-139991838D01*
X177353559Y-140130910D01*
X177299519Y-140210000D01*
X176457463Y-140210000D01*
X176425327Y-140177808D01*
X176081799Y-140035162D01*
X175709833Y-140034838D01*
X175366057Y-140176883D01*
X175102808Y-140439673D01*
X174960162Y-140783201D01*
X174959838Y-141155167D01*
X175101883Y-141498943D01*
X175364673Y-141762192D01*
X175708201Y-141904838D01*
X176080167Y-141905162D01*
X176423943Y-141763117D01*
X176457118Y-141730000D01*
X177298156Y-141730000D01*
X177340910Y-141796441D01*
X177553110Y-141941431D01*
X177805000Y-141992440D01*
X178605000Y-141992440D01*
X178840317Y-141948162D01*
X178954978Y-141874380D01*
X179053110Y-141941431D01*
X179305000Y-141992440D01*
X180105000Y-141992440D01*
X180340317Y-141948162D01*
X180556441Y-141809090D01*
X180701431Y-141596890D01*
X180752440Y-141345000D01*
X180752440Y-140595000D01*
X180708162Y-140359683D01*
X180569090Y-140143559D01*
X180465000Y-140072437D01*
X180465000Y-137668000D01*
X180440287Y-137543759D01*
X180492174Y-137418801D01*
X180492624Y-136903460D01*
X180295827Y-136427174D01*
X179957000Y-136087755D01*
X179957000Y-123317000D01*
X179944575Y-123254538D01*
X179899148Y-123026160D01*
X179734401Y-122779599D01*
X179134544Y-122179742D01*
X179134884Y-121789686D01*
X183263000Y-125917802D01*
X183263000Y-136088300D01*
X182925454Y-136425257D01*
X182727826Y-136901199D01*
X182727376Y-137416540D01*
X182779788Y-137543386D01*
X182755000Y-137668000D01*
X182755000Y-140072069D01*
X182663559Y-140130910D01*
X182518569Y-140343110D01*
X182467560Y-140595000D01*
X182467560Y-141345000D01*
X182511838Y-141580317D01*
X182650910Y-141796441D01*
X182863110Y-141941431D01*
X183115000Y-141992440D01*
X183915000Y-141992440D01*
X184150317Y-141948162D01*
X184264978Y-141874380D01*
X184363110Y-141941431D01*
X184615000Y-141992440D01*
X185415000Y-141992440D01*
X185650317Y-141948162D01*
X185866441Y-141809090D01*
X185920481Y-141730000D01*
X186762537Y-141730000D01*
X186794673Y-141762192D01*
X187138201Y-141904838D01*
X187510167Y-141905162D01*
X187853943Y-141763117D01*
X188117192Y-141500327D01*
X188259838Y-141156799D01*
X188260162Y-140784833D01*
X188118117Y-140441057D01*
X187855327Y-140177808D01*
X187511799Y-140035162D01*
X187139833Y-140034838D01*
X186796057Y-140176883D01*
X186762882Y-140210000D01*
X185921844Y-140210000D01*
X185879090Y-140143559D01*
X185666890Y-139998569D01*
X185415000Y-139947560D01*
X184615000Y-139947560D01*
X184379683Y-139991838D01*
X184275000Y-140059200D01*
X184275000Y-138455620D01*
X184279540Y-138455624D01*
X184755826Y-138258827D01*
X185120546Y-137894743D01*
X185276557Y-137519026D01*
X191432642Y-137519026D01*
X191435291Y-137534791D01*
X191689268Y-138062036D01*
X192125680Y-138451954D01*
X192678087Y-138645184D01*
X192913000Y-138500924D01*
X192913000Y-137287000D01*
X193167000Y-137287000D01*
X193167000Y-138500924D01*
X193401913Y-138645184D01*
X193954320Y-138451954D01*
X194390732Y-138062036D01*
X194644709Y-137534791D01*
X194647358Y-137519026D01*
X194526217Y-137287000D01*
X193167000Y-137287000D01*
X192913000Y-137287000D01*
X191553783Y-137287000D01*
X191432642Y-137519026D01*
X185276557Y-137519026D01*
X185318174Y-137418801D01*
X185318624Y-136903460D01*
X185121827Y-136427174D01*
X184783000Y-136087755D01*
X184783000Y-134979026D01*
X191432642Y-134979026D01*
X191435291Y-134994791D01*
X191689268Y-135522036D01*
X192101108Y-135890000D01*
X191689268Y-136257964D01*
X191435291Y-136785209D01*
X191432642Y-136800974D01*
X191553783Y-137033000D01*
X192913000Y-137033000D01*
X192913000Y-134747000D01*
X193167000Y-134747000D01*
X193167000Y-137033000D01*
X194526217Y-137033000D01*
X194647358Y-136800974D01*
X194644709Y-136785209D01*
X194390732Y-136257964D01*
X193978892Y-135890000D01*
X194390732Y-135522036D01*
X194644709Y-134994791D01*
X194647358Y-134979026D01*
X194526217Y-134747000D01*
X193167000Y-134747000D01*
X192913000Y-134747000D01*
X191553783Y-134747000D01*
X191432642Y-134979026D01*
X184783000Y-134979026D01*
X184783000Y-133260762D01*
X185153333Y-133414538D01*
X185684337Y-133415001D01*
X186175099Y-133212223D01*
X186547972Y-132840000D01*
X191595352Y-132840000D01*
X191795585Y-133139670D01*
X192105069Y-133346461D01*
X191689268Y-133717964D01*
X191435291Y-134245209D01*
X191432642Y-134260974D01*
X191553783Y-134493000D01*
X192913000Y-134493000D01*
X192913000Y-134473000D01*
X193167000Y-134473000D01*
X193167000Y-134493000D01*
X194526217Y-134493000D01*
X194647358Y-134260974D01*
X194644709Y-134245209D01*
X194390732Y-133717964D01*
X193974931Y-133346461D01*
X194284415Y-133139670D01*
X194609271Y-132653489D01*
X194723345Y-132080000D01*
X194609271Y-131506511D01*
X194284415Y-131020330D01*
X193969634Y-130810000D01*
X194284415Y-130599670D01*
X194609271Y-130113489D01*
X194723345Y-129540000D01*
X194609271Y-128966511D01*
X194284415Y-128480330D01*
X193969634Y-128270000D01*
X194284415Y-128059670D01*
X194609271Y-127573489D01*
X194723345Y-127000000D01*
X194609271Y-126426511D01*
X194284415Y-125940330D01*
X193969634Y-125730000D01*
X194284415Y-125519670D01*
X194609271Y-125033489D01*
X194723345Y-124460000D01*
X194609271Y-123886511D01*
X194284415Y-123400330D01*
X193969634Y-123190000D01*
X194284415Y-122979670D01*
X194609271Y-122493489D01*
X194723345Y-121920000D01*
X194609271Y-121346511D01*
X194284415Y-120860330D01*
X193974931Y-120653539D01*
X194390732Y-120282036D01*
X194644709Y-119754791D01*
X194647358Y-119739026D01*
X194526217Y-119507000D01*
X193167000Y-119507000D01*
X193167000Y-119527000D01*
X192913000Y-119527000D01*
X192913000Y-119507000D01*
X191553783Y-119507000D01*
X191432642Y-119739026D01*
X191435291Y-119754791D01*
X191689268Y-120282036D01*
X192105069Y-120653539D01*
X191795585Y-120860330D01*
X191595352Y-121160000D01*
X186547331Y-121160000D01*
X186177074Y-120789097D01*
X185858189Y-120656684D01*
X186113693Y-120550851D01*
X186175503Y-120315108D01*
X185420000Y-119559605D01*
X184664497Y-120315108D01*
X184726307Y-120550851D01*
X185002755Y-120648179D01*
X184664901Y-120787777D01*
X184289097Y-121162926D01*
X184085462Y-121653333D01*
X184084999Y-122184337D01*
X184287777Y-122675099D01*
X184662926Y-123050903D01*
X184998128Y-123190091D01*
X184664901Y-123327777D01*
X184289097Y-123702926D01*
X184085462Y-124193333D01*
X184085116Y-124590314D01*
X179134544Y-119639742D01*
X179134938Y-119187177D01*
X184072810Y-119187177D01*
X184101568Y-119717402D01*
X184249149Y-120073693D01*
X184484892Y-120135503D01*
X185240395Y-119380000D01*
X185599605Y-119380000D01*
X186355108Y-120135503D01*
X186590851Y-120073693D01*
X186767190Y-119572823D01*
X186738432Y-119042598D01*
X186590851Y-118686307D01*
X186355108Y-118624497D01*
X185599605Y-119380000D01*
X185240395Y-119380000D01*
X184484892Y-118624497D01*
X184249149Y-118686307D01*
X184072810Y-119187177D01*
X179134938Y-119187177D01*
X179135001Y-119115663D01*
X178932223Y-118624901D01*
X178557074Y-118249097D01*
X178221872Y-118109909D01*
X178555099Y-117972223D01*
X178930903Y-117597074D01*
X179134538Y-117106667D01*
X179135001Y-116575663D01*
X178932223Y-116084901D01*
X178557074Y-115709097D01*
X178238189Y-115576684D01*
X178493693Y-115470851D01*
X178555503Y-115235108D01*
X177800000Y-114479605D01*
X177044497Y-115235108D01*
X177106307Y-115470851D01*
X177382755Y-115568179D01*
X177044901Y-115707777D01*
X176669097Y-116082926D01*
X176465462Y-116573333D01*
X176464999Y-117104337D01*
X176667777Y-117595099D01*
X177042926Y-117970903D01*
X177378128Y-118110091D01*
X177044901Y-118247777D01*
X176669097Y-118622926D01*
X176465462Y-119113333D01*
X176464999Y-119644337D01*
X176667777Y-120135099D01*
X177042926Y-120510903D01*
X177378128Y-120650091D01*
X177044901Y-120787777D01*
X176669097Y-121162926D01*
X176465462Y-121653333D01*
X176464999Y-122184337D01*
X176667777Y-122675099D01*
X177042926Y-123050903D01*
X177378128Y-123190091D01*
X177044901Y-123327777D01*
X176672028Y-123700000D01*
X171624648Y-123700000D01*
X171424415Y-123400330D01*
X171109634Y-123190000D01*
X171424415Y-122979670D01*
X171749271Y-122493489D01*
X171863345Y-121920000D01*
X171749271Y-121346511D01*
X171424415Y-120860330D01*
X171109634Y-120650000D01*
X171424415Y-120439670D01*
X171749271Y-119953489D01*
X171863345Y-119380000D01*
X171749271Y-118806511D01*
X171424415Y-118320330D01*
X171109634Y-118110000D01*
X171424415Y-117899670D01*
X171749271Y-117413489D01*
X171863345Y-116840000D01*
X171749271Y-116266511D01*
X171424415Y-115780330D01*
X171109634Y-115570000D01*
X171424415Y-115359670D01*
X171749271Y-114873489D01*
X171863345Y-114300000D01*
X171824991Y-114107177D01*
X176452810Y-114107177D01*
X176481568Y-114637402D01*
X176629149Y-114993693D01*
X176864892Y-115055503D01*
X177620395Y-114300000D01*
X177979605Y-114300000D01*
X178735108Y-115055503D01*
X178970851Y-114993693D01*
X179147190Y-114492823D01*
X179118432Y-113962598D01*
X178970851Y-113606307D01*
X178735108Y-113544497D01*
X177979605Y-114300000D01*
X177620395Y-114300000D01*
X176864892Y-113544497D01*
X176629149Y-113606307D01*
X176452810Y-114107177D01*
X171824991Y-114107177D01*
X171749271Y-113726511D01*
X171424415Y-113240330D01*
X171109634Y-113030000D01*
X171424415Y-112819670D01*
X171624648Y-112520000D01*
X176672669Y-112520000D01*
X177042926Y-112890903D01*
X177361811Y-113023316D01*
X177106307Y-113129149D01*
X177044497Y-113364892D01*
X177800000Y-114120395D01*
X178555503Y-113364892D01*
X178493693Y-113129149D01*
X178217245Y-113031821D01*
X178555099Y-112892223D01*
X178930903Y-112517074D01*
X179134538Y-112026667D01*
X179135001Y-111495663D01*
X178932223Y-111004901D01*
X178557074Y-110629097D01*
X178221872Y-110489909D01*
X178555099Y-110352223D01*
X178930903Y-109977074D01*
X179134538Y-109486667D01*
X179135001Y-108955663D01*
X178932223Y-108464901D01*
X178557074Y-108089097D01*
X178221872Y-107949909D01*
X178555099Y-107812223D01*
X178930903Y-107437074D01*
X179134538Y-106946667D01*
X179135001Y-106415663D01*
X178932223Y-105924901D01*
X178557074Y-105549097D01*
X178221872Y-105409909D01*
X178555099Y-105272223D01*
X178930903Y-104897074D01*
X179134538Y-104406667D01*
X179135001Y-103875663D01*
X178932223Y-103384901D01*
X178557074Y-103009097D01*
X178221872Y-102869909D01*
X178555099Y-102732223D01*
X178930903Y-102357074D01*
X179134538Y-101866667D01*
X179135001Y-101335663D01*
X178932223Y-100844901D01*
X178557074Y-100469097D01*
X178408034Y-100407210D01*
X178499770Y-100407210D01*
X178735087Y-100362932D01*
X178951211Y-100223860D01*
X179096201Y-100011660D01*
X179147210Y-99759770D01*
X179147210Y-99324337D01*
X184084999Y-99324337D01*
X184287777Y-99815099D01*
X184662926Y-100190903D01*
X184998128Y-100330091D01*
X184664901Y-100467777D01*
X184289097Y-100842926D01*
X184085462Y-101333333D01*
X184084999Y-101864337D01*
X184287777Y-102355099D01*
X184662926Y-102730903D01*
X184998128Y-102870091D01*
X184664901Y-103007777D01*
X184289097Y-103382926D01*
X184085462Y-103873333D01*
X184084999Y-104404337D01*
X184287777Y-104895099D01*
X184662926Y-105270903D01*
X184998128Y-105410091D01*
X184664901Y-105547777D01*
X184289097Y-105922926D01*
X184085462Y-106413333D01*
X184084999Y-106944337D01*
X184287777Y-107435099D01*
X184662926Y-107810903D01*
X184998128Y-107950091D01*
X184664901Y-108087777D01*
X184289097Y-108462926D01*
X184085462Y-108953333D01*
X184084999Y-109484337D01*
X184287777Y-109975099D01*
X184662926Y-110350903D01*
X184998128Y-110490091D01*
X184664901Y-110627777D01*
X184289097Y-111002926D01*
X184085462Y-111493333D01*
X184084999Y-112024337D01*
X184287777Y-112515099D01*
X184662926Y-112890903D01*
X184998128Y-113030091D01*
X184664901Y-113167777D01*
X184289097Y-113542926D01*
X184085462Y-114033333D01*
X184084999Y-114564337D01*
X184287777Y-115055099D01*
X184662926Y-115430903D01*
X184998128Y-115570091D01*
X184664901Y-115707777D01*
X184289097Y-116082926D01*
X184085462Y-116573333D01*
X184084999Y-117104337D01*
X184287777Y-117595099D01*
X184662926Y-117970903D01*
X184981811Y-118103316D01*
X184726307Y-118209149D01*
X184664497Y-118444892D01*
X185420000Y-119200395D01*
X186175503Y-118444892D01*
X186113693Y-118209149D01*
X185837245Y-118111821D01*
X186175099Y-117972223D01*
X186547972Y-117600000D01*
X191595352Y-117600000D01*
X191795585Y-117899670D01*
X192105069Y-118106461D01*
X191689268Y-118477964D01*
X191435291Y-119005209D01*
X191432642Y-119020974D01*
X191553783Y-119253000D01*
X192913000Y-119253000D01*
X192913000Y-119233000D01*
X193167000Y-119233000D01*
X193167000Y-119253000D01*
X194526217Y-119253000D01*
X194647358Y-119020974D01*
X194644709Y-119005209D01*
X194390732Y-118477964D01*
X193974931Y-118106461D01*
X194284415Y-117899670D01*
X194609271Y-117413489D01*
X194723345Y-116840000D01*
X194609271Y-116266511D01*
X194284415Y-115780330D01*
X193974931Y-115573539D01*
X194390732Y-115202036D01*
X194644709Y-114674791D01*
X194647358Y-114659026D01*
X194526217Y-114427000D01*
X193167000Y-114427000D01*
X193167000Y-114447000D01*
X192913000Y-114447000D01*
X192913000Y-114427000D01*
X191553783Y-114427000D01*
X191432642Y-114659026D01*
X191435291Y-114674791D01*
X191689268Y-115202036D01*
X192105069Y-115573539D01*
X191795585Y-115780330D01*
X191595352Y-116080000D01*
X186547331Y-116080000D01*
X186177074Y-115709097D01*
X185841872Y-115569909D01*
X186175099Y-115432223D01*
X186550903Y-115057074D01*
X186754538Y-114566667D01*
X186755001Y-114035663D01*
X186552223Y-113544901D01*
X186177074Y-113169097D01*
X185841872Y-113029909D01*
X186175099Y-112892223D01*
X186547972Y-112520000D01*
X191595352Y-112520000D01*
X191795585Y-112819670D01*
X192105069Y-113026461D01*
X191689268Y-113397964D01*
X191435291Y-113925209D01*
X191432642Y-113940974D01*
X191553783Y-114173000D01*
X192913000Y-114173000D01*
X192913000Y-114153000D01*
X193167000Y-114153000D01*
X193167000Y-114173000D01*
X194526217Y-114173000D01*
X194647358Y-113940974D01*
X194644709Y-113925209D01*
X194390732Y-113397964D01*
X193974931Y-113026461D01*
X194284415Y-112819670D01*
X194609271Y-112333489D01*
X194723345Y-111760000D01*
X194609271Y-111186511D01*
X194284415Y-110700330D01*
X193969634Y-110490000D01*
X194284415Y-110279670D01*
X194609271Y-109793489D01*
X194723345Y-109220000D01*
X194609271Y-108646511D01*
X194284415Y-108160330D01*
X193969634Y-107950000D01*
X194284415Y-107739670D01*
X194609271Y-107253489D01*
X194723345Y-106680000D01*
X194609271Y-106106511D01*
X194284415Y-105620330D01*
X193969634Y-105410000D01*
X194284415Y-105199670D01*
X194609271Y-104713489D01*
X194723345Y-104140000D01*
X194609271Y-103566511D01*
X194284415Y-103080330D01*
X193969634Y-102870000D01*
X194284415Y-102659670D01*
X194609271Y-102173489D01*
X194723345Y-101600000D01*
X194609271Y-101026511D01*
X194284415Y-100540330D01*
X194270087Y-100530757D01*
X194291317Y-100526762D01*
X194507441Y-100387690D01*
X194652431Y-100175490D01*
X194703440Y-99923600D01*
X194703440Y-98196400D01*
X194659162Y-97961083D01*
X194520090Y-97744959D01*
X194307890Y-97599969D01*
X194056000Y-97548960D01*
X192024000Y-97548960D01*
X191788683Y-97593238D01*
X191572559Y-97732310D01*
X191427569Y-97944510D01*
X191376560Y-98196400D01*
X191376560Y-98300000D01*
X186547331Y-98300000D01*
X186177074Y-97929097D01*
X185686667Y-97725462D01*
X185155663Y-97724999D01*
X184664901Y-97927777D01*
X184289097Y-98302926D01*
X184085462Y-98793333D01*
X184084999Y-99324337D01*
X179147210Y-99324337D01*
X179147210Y-98360230D01*
X179102932Y-98124913D01*
X178963860Y-97908789D01*
X178751660Y-97763799D01*
X178499770Y-97712790D01*
X177100230Y-97712790D01*
X176864913Y-97757068D01*
X176648789Y-97896140D01*
X176503799Y-98108340D01*
X176464987Y-98300000D01*
X176118026Y-98300000D01*
X176248327Y-98169698D01*
X176345000Y-97936309D01*
X176345000Y-97843750D01*
X176186250Y-97685000D01*
X175387000Y-97685000D01*
X175387000Y-97707000D01*
X175133000Y-97707000D01*
X175133000Y-97685000D01*
X174333750Y-97685000D01*
X174175000Y-97843750D01*
X174175000Y-97936309D01*
X174271673Y-98169698D01*
X174401974Y-98300000D01*
X172167202Y-98300000D01*
X173283511Y-97183691D01*
X174175000Y-97183691D01*
X174175000Y-97276250D01*
X174333750Y-97435000D01*
X175133000Y-97435000D01*
X175133000Y-96833750D01*
X175387000Y-96833750D01*
X175387000Y-97435000D01*
X176186250Y-97435000D01*
X176345000Y-97276250D01*
X176345000Y-97183691D01*
X176248327Y-96950302D01*
X176069699Y-96771673D01*
X175836310Y-96675000D01*
X175545750Y-96675000D01*
X175387000Y-96833750D01*
X175133000Y-96833750D01*
X174974250Y-96675000D01*
X174683690Y-96675000D01*
X174450301Y-96771673D01*
X174271673Y-96950302D01*
X174175000Y-97183691D01*
X173283511Y-97183691D01*
X174987332Y-95479870D01*
X177463710Y-95479870D01*
X177463710Y-96178370D01*
X177507988Y-96413687D01*
X177647060Y-96629811D01*
X177859260Y-96774801D01*
X178111150Y-96825810D01*
X179109370Y-96825810D01*
X179344687Y-96781532D01*
X179560811Y-96642460D01*
X179597257Y-96589120D01*
X183620356Y-96589120D01*
X183646540Y-96629811D01*
X183858740Y-96774801D01*
X184110630Y-96825810D01*
X185108850Y-96825810D01*
X185344167Y-96781532D01*
X185560291Y-96642460D01*
X185596737Y-96589120D01*
X186110880Y-96589120D01*
X186401719Y-96531268D01*
X186648281Y-96366521D01*
X188099680Y-94915122D01*
X188145167Y-94915162D01*
X188488943Y-94773117D01*
X188752192Y-94510327D01*
X188894838Y-94166799D01*
X188895162Y-93794833D01*
X188753117Y-93451057D01*
X188490327Y-93187808D01*
X188146799Y-93045162D01*
X187774833Y-93044838D01*
X187431057Y-93186883D01*
X187167808Y-93449673D01*
X187025162Y-93793201D01*
X187025121Y-93840077D01*
X185796078Y-95069120D01*
X185599124Y-95069120D01*
X185572940Y-95028429D01*
X185360740Y-94883439D01*
X185108850Y-94832430D01*
X184110630Y-94832430D01*
X183875313Y-94876708D01*
X183659189Y-95015780D01*
X183622743Y-95069120D01*
X179599644Y-95069120D01*
X179573460Y-95028429D01*
X179361260Y-94883439D01*
X179109370Y-94832430D01*
X178111150Y-94832430D01*
X177875833Y-94876708D01*
X177659709Y-95015780D01*
X177514719Y-95227980D01*
X177463710Y-95479870D01*
X174987332Y-95479870D01*
X177576322Y-92890880D01*
X177620876Y-92890880D01*
X177647060Y-92931571D01*
X177859260Y-93076561D01*
X178111150Y-93127570D01*
X179109370Y-93127570D01*
X179344687Y-93083292D01*
X179560811Y-92944220D01*
X179597257Y-92890880D01*
X183620356Y-92890880D01*
X183646540Y-92931571D01*
X183858740Y-93076561D01*
X184110630Y-93127570D01*
X185108850Y-93127570D01*
X185344167Y-93083292D01*
X185560291Y-92944220D01*
X185705281Y-92732020D01*
X185756290Y-92480130D01*
X185756290Y-91781630D01*
X185712012Y-91546313D01*
X185572940Y-91330189D01*
X185360740Y-91185199D01*
X185108850Y-91134190D01*
X184110630Y-91134190D01*
X183875313Y-91178468D01*
X183659189Y-91317540D01*
X183622743Y-91370880D01*
X179599644Y-91370880D01*
X179573460Y-91330189D01*
X179361260Y-91185199D01*
X179109370Y-91134190D01*
X178111150Y-91134190D01*
X177875833Y-91178468D01*
X177659709Y-91317540D01*
X177623263Y-91370880D01*
X177261520Y-91370880D01*
X177018934Y-91419134D01*
X176970680Y-91428732D01*
X176724119Y-91593479D01*
X170691252Y-97626346D01*
X170364745Y-97561400D01*
X169995255Y-97561400D01*
X169421766Y-97675474D01*
X168935585Y-98000330D01*
X168610729Y-98486511D01*
X168496655Y-99060000D01*
X167767000Y-99060000D01*
X167767000Y-90932000D01*
X195453000Y-90932000D01*
X195453000Y-142113000D01*
X195453000Y-142113000D01*
G37*
X195453000Y-142113000D02*
X167767000Y-142113000D01*
X167767000Y-99060000D01*
X168496655Y-99060000D01*
X168610729Y-99633489D01*
X168935585Y-100119670D01*
X169250366Y-100330000D01*
X168935585Y-100540330D01*
X168610729Y-101026511D01*
X168496655Y-101600000D01*
X168610729Y-102173489D01*
X168935585Y-102659670D01*
X169250366Y-102870000D01*
X168935585Y-103080330D01*
X168610729Y-103566511D01*
X168496655Y-104140000D01*
X168610729Y-104713489D01*
X168935585Y-105199670D01*
X169250366Y-105410000D01*
X168935585Y-105620330D01*
X168610729Y-106106511D01*
X168496655Y-106680000D01*
X168610729Y-107253489D01*
X168935585Y-107739670D01*
X169250366Y-107950000D01*
X168935585Y-108160330D01*
X168610729Y-108646511D01*
X168496655Y-109220000D01*
X168610729Y-109793489D01*
X168935585Y-110279670D01*
X169250366Y-110490000D01*
X168935585Y-110700330D01*
X168610729Y-111186511D01*
X168496655Y-111760000D01*
X168610729Y-112333489D01*
X168935585Y-112819670D01*
X169250366Y-113030000D01*
X168935585Y-113240330D01*
X168610729Y-113726511D01*
X168496655Y-114300000D01*
X168610729Y-114873489D01*
X168935585Y-115359670D01*
X169250366Y-115570000D01*
X168935585Y-115780330D01*
X168610729Y-116266511D01*
X168496655Y-116840000D01*
X168610729Y-117413489D01*
X168935585Y-117899670D01*
X169250366Y-118110000D01*
X168935585Y-118320330D01*
X168610729Y-118806511D01*
X168496655Y-119380000D01*
X168610729Y-119953489D01*
X168935585Y-120439670D01*
X169250366Y-120650000D01*
X168935585Y-120860330D01*
X168610729Y-121346511D01*
X168496655Y-121920000D01*
X168610729Y-122493489D01*
X168935585Y-122979670D01*
X169250366Y-123190000D01*
X168935585Y-123400330D01*
X168610729Y-123886511D01*
X168496655Y-124460000D01*
X168610729Y-125033489D01*
X168935585Y-125519670D01*
X169250366Y-125730000D01*
X168935585Y-125940330D01*
X168610729Y-126426511D01*
X168496655Y-127000000D01*
X168610729Y-127573489D01*
X168935585Y-128059670D01*
X169250366Y-128270000D01*
X168935585Y-128480330D01*
X168610729Y-128966511D01*
X168496655Y-129540000D01*
X168610729Y-130113489D01*
X168935585Y-130599670D01*
X169250366Y-130810000D01*
X168935585Y-131020330D01*
X168610729Y-131506511D01*
X168496655Y-132080000D01*
X168610729Y-132653489D01*
X168935585Y-133139670D01*
X169250366Y-133350000D01*
X168935585Y-133560330D01*
X168610729Y-134046511D01*
X168496655Y-134620000D01*
X168610729Y-135193489D01*
X168935585Y-135679670D01*
X168949913Y-135689243D01*
X168928683Y-135693238D01*
X168712559Y-135832310D01*
X168567569Y-136044510D01*
X168516560Y-136296400D01*
X168516560Y-138023600D01*
X168560838Y-138258917D01*
X168699910Y-138475041D01*
X168912110Y-138620031D01*
X169164000Y-138671040D01*
X171196000Y-138671040D01*
X171431317Y-138626762D01*
X171647441Y-138487690D01*
X171792431Y-138275490D01*
X171843440Y-138023600D01*
X171843440Y-136296400D01*
X171799162Y-136061083D01*
X171660090Y-135844959D01*
X171447890Y-135699969D01*
X171406561Y-135691600D01*
X171424415Y-135679670D01*
X171749271Y-135193489D01*
X171863345Y-134620000D01*
X171749271Y-134046511D01*
X171424415Y-133560330D01*
X171109634Y-133350000D01*
X171424415Y-133139670D01*
X171624648Y-132840000D01*
X176672669Y-132840000D01*
X177042926Y-133210903D01*
X177533333Y-133414538D01*
X178064337Y-133415001D01*
X178437000Y-133261020D01*
X178437000Y-136088300D01*
X178099454Y-136425257D01*
X177901826Y-136901199D01*
X177901376Y-137416540D01*
X178098173Y-137892826D01*
X178462257Y-138257546D01*
X178938199Y-138455174D01*
X178945000Y-138455180D01*
X178945000Y-140058772D01*
X178856890Y-139998569D01*
X178605000Y-139947560D01*
X177805000Y-139947560D01*
X177569683Y-139991838D01*
X177353559Y-140130910D01*
X177299519Y-140210000D01*
X176457463Y-140210000D01*
X176425327Y-140177808D01*
X176081799Y-140035162D01*
X175709833Y-140034838D01*
X175366057Y-140176883D01*
X175102808Y-140439673D01*
X174960162Y-140783201D01*
X174959838Y-141155167D01*
X175101883Y-141498943D01*
X175364673Y-141762192D01*
X175708201Y-141904838D01*
X176080167Y-141905162D01*
X176423943Y-141763117D01*
X176457118Y-141730000D01*
X177298156Y-141730000D01*
X177340910Y-141796441D01*
X177553110Y-141941431D01*
X177805000Y-141992440D01*
X178605000Y-141992440D01*
X178840317Y-141948162D01*
X178954978Y-141874380D01*
X179053110Y-141941431D01*
X179305000Y-141992440D01*
X180105000Y-141992440D01*
X180340317Y-141948162D01*
X180556441Y-141809090D01*
X180701431Y-141596890D01*
X180752440Y-141345000D01*
X180752440Y-140595000D01*
X180708162Y-140359683D01*
X180569090Y-140143559D01*
X180465000Y-140072437D01*
X180465000Y-137668000D01*
X180440287Y-137543759D01*
X180492174Y-137418801D01*
X180492624Y-136903460D01*
X180295827Y-136427174D01*
X179957000Y-136087755D01*
X179957000Y-123317000D01*
X179944575Y-123254538D01*
X179899148Y-123026160D01*
X179734401Y-122779599D01*
X179134544Y-122179742D01*
X179134884Y-121789686D01*
X183263000Y-125917802D01*
X183263000Y-136088300D01*
X182925454Y-136425257D01*
X182727826Y-136901199D01*
X182727376Y-137416540D01*
X182779788Y-137543386D01*
X182755000Y-137668000D01*
X182755000Y-140072069D01*
X182663559Y-140130910D01*
X182518569Y-140343110D01*
X182467560Y-140595000D01*
X182467560Y-141345000D01*
X182511838Y-141580317D01*
X182650910Y-141796441D01*
X182863110Y-141941431D01*
X183115000Y-141992440D01*
X183915000Y-141992440D01*
X184150317Y-141948162D01*
X184264978Y-141874380D01*
X184363110Y-141941431D01*
X184615000Y-141992440D01*
X185415000Y-141992440D01*
X185650317Y-141948162D01*
X185866441Y-141809090D01*
X185920481Y-141730000D01*
X186762537Y-141730000D01*
X186794673Y-141762192D01*
X187138201Y-141904838D01*
X187510167Y-141905162D01*
X187853943Y-141763117D01*
X188117192Y-141500327D01*
X188259838Y-141156799D01*
X188260162Y-140784833D01*
X188118117Y-140441057D01*
X187855327Y-140177808D01*
X187511799Y-140035162D01*
X187139833Y-140034838D01*
X186796057Y-140176883D01*
X186762882Y-140210000D01*
X185921844Y-140210000D01*
X185879090Y-140143559D01*
X185666890Y-139998569D01*
X185415000Y-139947560D01*
X184615000Y-139947560D01*
X184379683Y-139991838D01*
X184275000Y-140059200D01*
X184275000Y-138455620D01*
X184279540Y-138455624D01*
X184755826Y-138258827D01*
X185120546Y-137894743D01*
X185276557Y-137519026D01*
X191432642Y-137519026D01*
X191435291Y-137534791D01*
X191689268Y-138062036D01*
X192125680Y-138451954D01*
X192678087Y-138645184D01*
X192913000Y-138500924D01*
X192913000Y-137287000D01*
X193167000Y-137287000D01*
X193167000Y-138500924D01*
X193401913Y-138645184D01*
X193954320Y-138451954D01*
X194390732Y-138062036D01*
X194644709Y-137534791D01*
X194647358Y-137519026D01*
X194526217Y-137287000D01*
X193167000Y-137287000D01*
X192913000Y-137287000D01*
X191553783Y-137287000D01*
X191432642Y-137519026D01*
X185276557Y-137519026D01*
X185318174Y-137418801D01*
X185318624Y-136903460D01*
X185121827Y-136427174D01*
X184783000Y-136087755D01*
X184783000Y-134979026D01*
X191432642Y-134979026D01*
X191435291Y-134994791D01*
X191689268Y-135522036D01*
X192101108Y-135890000D01*
X191689268Y-136257964D01*
X191435291Y-136785209D01*
X191432642Y-136800974D01*
X191553783Y-137033000D01*
X192913000Y-137033000D01*
X192913000Y-134747000D01*
X193167000Y-134747000D01*
X193167000Y-137033000D01*
X194526217Y-137033000D01*
X194647358Y-136800974D01*
X194644709Y-136785209D01*
X194390732Y-136257964D01*
X193978892Y-135890000D01*
X194390732Y-135522036D01*
X194644709Y-134994791D01*
X194647358Y-134979026D01*
X194526217Y-134747000D01*
X193167000Y-134747000D01*
X192913000Y-134747000D01*
X191553783Y-134747000D01*
X191432642Y-134979026D01*
X184783000Y-134979026D01*
X184783000Y-133260762D01*
X185153333Y-133414538D01*
X185684337Y-133415001D01*
X186175099Y-133212223D01*
X186547972Y-132840000D01*
X191595352Y-132840000D01*
X191795585Y-133139670D01*
X192105069Y-133346461D01*
X191689268Y-133717964D01*
X191435291Y-134245209D01*
X191432642Y-134260974D01*
X191553783Y-134493000D01*
X192913000Y-134493000D01*
X192913000Y-134473000D01*
X193167000Y-134473000D01*
X193167000Y-134493000D01*
X194526217Y-134493000D01*
X194647358Y-134260974D01*
X194644709Y-134245209D01*
X194390732Y-133717964D01*
X193974931Y-133346461D01*
X194284415Y-133139670D01*
X194609271Y-132653489D01*
X194723345Y-132080000D01*
X194609271Y-131506511D01*
X194284415Y-131020330D01*
X193969634Y-130810000D01*
X194284415Y-130599670D01*
X194609271Y-130113489D01*
X194723345Y-129540000D01*
X194609271Y-128966511D01*
X194284415Y-128480330D01*
X193969634Y-128270000D01*
X194284415Y-128059670D01*
X194609271Y-127573489D01*
X194723345Y-127000000D01*
X194609271Y-126426511D01*
X194284415Y-125940330D01*
X193969634Y-125730000D01*
X194284415Y-125519670D01*
X194609271Y-125033489D01*
X194723345Y-124460000D01*
X194609271Y-123886511D01*
X194284415Y-123400330D01*
X193969634Y-123190000D01*
X194284415Y-122979670D01*
X194609271Y-122493489D01*
X194723345Y-121920000D01*
X194609271Y-121346511D01*
X194284415Y-120860330D01*
X193974931Y-120653539D01*
X194390732Y-120282036D01*
X194644709Y-119754791D01*
X194647358Y-119739026D01*
X194526217Y-119507000D01*
X193167000Y-119507000D01*
X193167000Y-119527000D01*
X192913000Y-119527000D01*
X192913000Y-119507000D01*
X191553783Y-119507000D01*
X191432642Y-119739026D01*
X191435291Y-119754791D01*
X191689268Y-120282036D01*
X192105069Y-120653539D01*
X191795585Y-120860330D01*
X191595352Y-121160000D01*
X186547331Y-121160000D01*
X186177074Y-120789097D01*
X185858189Y-120656684D01*
X186113693Y-120550851D01*
X186175503Y-120315108D01*
X185420000Y-119559605D01*
X184664497Y-120315108D01*
X184726307Y-120550851D01*
X185002755Y-120648179D01*
X184664901Y-120787777D01*
X184289097Y-121162926D01*
X184085462Y-121653333D01*
X184084999Y-122184337D01*
X184287777Y-122675099D01*
X184662926Y-123050903D01*
X184998128Y-123190091D01*
X184664901Y-123327777D01*
X184289097Y-123702926D01*
X184085462Y-124193333D01*
X184085116Y-124590314D01*
X179134544Y-119639742D01*
X179134938Y-119187177D01*
X184072810Y-119187177D01*
X184101568Y-119717402D01*
X184249149Y-120073693D01*
X184484892Y-120135503D01*
X185240395Y-119380000D01*
X185599605Y-119380000D01*
X186355108Y-120135503D01*
X186590851Y-120073693D01*
X186767190Y-119572823D01*
X186738432Y-119042598D01*
X186590851Y-118686307D01*
X186355108Y-118624497D01*
X185599605Y-119380000D01*
X185240395Y-119380000D01*
X184484892Y-118624497D01*
X184249149Y-118686307D01*
X184072810Y-119187177D01*
X179134938Y-119187177D01*
X179135001Y-119115663D01*
X178932223Y-118624901D01*
X178557074Y-118249097D01*
X178221872Y-118109909D01*
X178555099Y-117972223D01*
X178930903Y-117597074D01*
X179134538Y-117106667D01*
X179135001Y-116575663D01*
X178932223Y-116084901D01*
X178557074Y-115709097D01*
X178238189Y-115576684D01*
X178493693Y-115470851D01*
X178555503Y-115235108D01*
X177800000Y-114479605D01*
X177044497Y-115235108D01*
X177106307Y-115470851D01*
X177382755Y-115568179D01*
X177044901Y-115707777D01*
X176669097Y-116082926D01*
X176465462Y-116573333D01*
X176464999Y-117104337D01*
X176667777Y-117595099D01*
X177042926Y-117970903D01*
X177378128Y-118110091D01*
X177044901Y-118247777D01*
X176669097Y-118622926D01*
X176465462Y-119113333D01*
X176464999Y-119644337D01*
X176667777Y-120135099D01*
X177042926Y-120510903D01*
X177378128Y-120650091D01*
X177044901Y-120787777D01*
X176669097Y-121162926D01*
X176465462Y-121653333D01*
X176464999Y-122184337D01*
X176667777Y-122675099D01*
X177042926Y-123050903D01*
X177378128Y-123190091D01*
X177044901Y-123327777D01*
X176672028Y-123700000D01*
X171624648Y-123700000D01*
X171424415Y-123400330D01*
X171109634Y-123190000D01*
X171424415Y-122979670D01*
X171749271Y-122493489D01*
X171863345Y-121920000D01*
X171749271Y-121346511D01*
X171424415Y-120860330D01*
X171109634Y-120650000D01*
X171424415Y-120439670D01*
X171749271Y-119953489D01*
X171863345Y-119380000D01*
X171749271Y-118806511D01*
X171424415Y-118320330D01*
X171109634Y-118110000D01*
X171424415Y-117899670D01*
X171749271Y-117413489D01*
X171863345Y-116840000D01*
X171749271Y-116266511D01*
X171424415Y-115780330D01*
X171109634Y-115570000D01*
X171424415Y-115359670D01*
X171749271Y-114873489D01*
X171863345Y-114300000D01*
X171824991Y-114107177D01*
X176452810Y-114107177D01*
X176481568Y-114637402D01*
X176629149Y-114993693D01*
X176864892Y-115055503D01*
X177620395Y-114300000D01*
X177979605Y-114300000D01*
X178735108Y-115055503D01*
X178970851Y-114993693D01*
X179147190Y-114492823D01*
X179118432Y-113962598D01*
X178970851Y-113606307D01*
X178735108Y-113544497D01*
X177979605Y-114300000D01*
X177620395Y-114300000D01*
X176864892Y-113544497D01*
X176629149Y-113606307D01*
X176452810Y-114107177D01*
X171824991Y-114107177D01*
X171749271Y-113726511D01*
X171424415Y-113240330D01*
X171109634Y-113030000D01*
X171424415Y-112819670D01*
X171624648Y-112520000D01*
X176672669Y-112520000D01*
X177042926Y-112890903D01*
X177361811Y-113023316D01*
X177106307Y-113129149D01*
X177044497Y-113364892D01*
X177800000Y-114120395D01*
X178555503Y-113364892D01*
X178493693Y-113129149D01*
X178217245Y-113031821D01*
X178555099Y-112892223D01*
X178930903Y-112517074D01*
X179134538Y-112026667D01*
X179135001Y-111495663D01*
X178932223Y-111004901D01*
X178557074Y-110629097D01*
X178221872Y-110489909D01*
X178555099Y-110352223D01*
X178930903Y-109977074D01*
X179134538Y-109486667D01*
X179135001Y-108955663D01*
X178932223Y-108464901D01*
X178557074Y-108089097D01*
X178221872Y-107949909D01*
X178555099Y-107812223D01*
X178930903Y-107437074D01*
X179134538Y-106946667D01*
X179135001Y-106415663D01*
X178932223Y-105924901D01*
X178557074Y-105549097D01*
X178221872Y-105409909D01*
X178555099Y-105272223D01*
X178930903Y-104897074D01*
X179134538Y-104406667D01*
X179135001Y-103875663D01*
X178932223Y-103384901D01*
X178557074Y-103009097D01*
X178221872Y-102869909D01*
X178555099Y-102732223D01*
X178930903Y-102357074D01*
X179134538Y-101866667D01*
X179135001Y-101335663D01*
X178932223Y-100844901D01*
X178557074Y-100469097D01*
X178408034Y-100407210D01*
X178499770Y-100407210D01*
X178735087Y-100362932D01*
X178951211Y-100223860D01*
X179096201Y-100011660D01*
X179147210Y-99759770D01*
X179147210Y-99324337D01*
X184084999Y-99324337D01*
X184287777Y-99815099D01*
X184662926Y-100190903D01*
X184998128Y-100330091D01*
X184664901Y-100467777D01*
X184289097Y-100842926D01*
X184085462Y-101333333D01*
X184084999Y-101864337D01*
X184287777Y-102355099D01*
X184662926Y-102730903D01*
X184998128Y-102870091D01*
X184664901Y-103007777D01*
X184289097Y-103382926D01*
X184085462Y-103873333D01*
X184084999Y-104404337D01*
X184287777Y-104895099D01*
X184662926Y-105270903D01*
X184998128Y-105410091D01*
X184664901Y-105547777D01*
X184289097Y-105922926D01*
X184085462Y-106413333D01*
X184084999Y-106944337D01*
X184287777Y-107435099D01*
X184662926Y-107810903D01*
X184998128Y-107950091D01*
X184664901Y-108087777D01*
X184289097Y-108462926D01*
X184085462Y-108953333D01*
X184084999Y-109484337D01*
X184287777Y-109975099D01*
X184662926Y-110350903D01*
X184998128Y-110490091D01*
X184664901Y-110627777D01*
X184289097Y-111002926D01*
X184085462Y-111493333D01*
X184084999Y-112024337D01*
X184287777Y-112515099D01*
X184662926Y-112890903D01*
X184998128Y-113030091D01*
X184664901Y-113167777D01*
X184289097Y-113542926D01*
X184085462Y-114033333D01*
X184084999Y-114564337D01*
X184287777Y-115055099D01*
X184662926Y-115430903D01*
X184998128Y-115570091D01*
X184664901Y-115707777D01*
X184289097Y-116082926D01*
X184085462Y-116573333D01*
X184084999Y-117104337D01*
X184287777Y-117595099D01*
X184662926Y-117970903D01*
X184981811Y-118103316D01*
X184726307Y-118209149D01*
X184664497Y-118444892D01*
X185420000Y-119200395D01*
X186175503Y-118444892D01*
X186113693Y-118209149D01*
X185837245Y-118111821D01*
X186175099Y-117972223D01*
X186547972Y-117600000D01*
X191595352Y-117600000D01*
X191795585Y-117899670D01*
X192105069Y-118106461D01*
X191689268Y-118477964D01*
X191435291Y-119005209D01*
X191432642Y-119020974D01*
X191553783Y-119253000D01*
X192913000Y-119253000D01*
X192913000Y-119233000D01*
X193167000Y-119233000D01*
X193167000Y-119253000D01*
X194526217Y-119253000D01*
X194647358Y-119020974D01*
X194644709Y-119005209D01*
X194390732Y-118477964D01*
X193974931Y-118106461D01*
X194284415Y-117899670D01*
X194609271Y-117413489D01*
X194723345Y-116840000D01*
X194609271Y-116266511D01*
X194284415Y-115780330D01*
X193974931Y-115573539D01*
X194390732Y-115202036D01*
X194644709Y-114674791D01*
X194647358Y-114659026D01*
X194526217Y-114427000D01*
X193167000Y-114427000D01*
X193167000Y-114447000D01*
X192913000Y-114447000D01*
X192913000Y-114427000D01*
X191553783Y-114427000D01*
X191432642Y-114659026D01*
X191435291Y-114674791D01*
X191689268Y-115202036D01*
X192105069Y-115573539D01*
X191795585Y-115780330D01*
X191595352Y-116080000D01*
X186547331Y-116080000D01*
X186177074Y-115709097D01*
X185841872Y-115569909D01*
X186175099Y-115432223D01*
X186550903Y-115057074D01*
X186754538Y-114566667D01*
X186755001Y-114035663D01*
X186552223Y-113544901D01*
X186177074Y-113169097D01*
X185841872Y-113029909D01*
X186175099Y-112892223D01*
X186547972Y-112520000D01*
X191595352Y-112520000D01*
X191795585Y-112819670D01*
X192105069Y-113026461D01*
X191689268Y-113397964D01*
X191435291Y-113925209D01*
X191432642Y-113940974D01*
X191553783Y-114173000D01*
X192913000Y-114173000D01*
X192913000Y-114153000D01*
X193167000Y-114153000D01*
X193167000Y-114173000D01*
X194526217Y-114173000D01*
X194647358Y-113940974D01*
X194644709Y-113925209D01*
X194390732Y-113397964D01*
X193974931Y-113026461D01*
X194284415Y-112819670D01*
X194609271Y-112333489D01*
X194723345Y-111760000D01*
X194609271Y-111186511D01*
X194284415Y-110700330D01*
X193969634Y-110490000D01*
X194284415Y-110279670D01*
X194609271Y-109793489D01*
X194723345Y-109220000D01*
X194609271Y-108646511D01*
X194284415Y-108160330D01*
X193969634Y-107950000D01*
X194284415Y-107739670D01*
X194609271Y-107253489D01*
X194723345Y-106680000D01*
X194609271Y-106106511D01*
X194284415Y-105620330D01*
X193969634Y-105410000D01*
X194284415Y-105199670D01*
X194609271Y-104713489D01*
X194723345Y-104140000D01*
X194609271Y-103566511D01*
X194284415Y-103080330D01*
X193969634Y-102870000D01*
X194284415Y-102659670D01*
X194609271Y-102173489D01*
X194723345Y-101600000D01*
X194609271Y-101026511D01*
X194284415Y-100540330D01*
X194270087Y-100530757D01*
X194291317Y-100526762D01*
X194507441Y-100387690D01*
X194652431Y-100175490D01*
X194703440Y-99923600D01*
X194703440Y-98196400D01*
X194659162Y-97961083D01*
X194520090Y-97744959D01*
X194307890Y-97599969D01*
X194056000Y-97548960D01*
X192024000Y-97548960D01*
X191788683Y-97593238D01*
X191572559Y-97732310D01*
X191427569Y-97944510D01*
X191376560Y-98196400D01*
X191376560Y-98300000D01*
X186547331Y-98300000D01*
X186177074Y-97929097D01*
X185686667Y-97725462D01*
X185155663Y-97724999D01*
X184664901Y-97927777D01*
X184289097Y-98302926D01*
X184085462Y-98793333D01*
X184084999Y-99324337D01*
X179147210Y-99324337D01*
X179147210Y-98360230D01*
X179102932Y-98124913D01*
X178963860Y-97908789D01*
X178751660Y-97763799D01*
X178499770Y-97712790D01*
X177100230Y-97712790D01*
X176864913Y-97757068D01*
X176648789Y-97896140D01*
X176503799Y-98108340D01*
X176464987Y-98300000D01*
X176118026Y-98300000D01*
X176248327Y-98169698D01*
X176345000Y-97936309D01*
X176345000Y-97843750D01*
X176186250Y-97685000D01*
X175387000Y-97685000D01*
X175387000Y-97707000D01*
X175133000Y-97707000D01*
X175133000Y-97685000D01*
X174333750Y-97685000D01*
X174175000Y-97843750D01*
X174175000Y-97936309D01*
X174271673Y-98169698D01*
X174401974Y-98300000D01*
X172167202Y-98300000D01*
X173283511Y-97183691D01*
X174175000Y-97183691D01*
X174175000Y-97276250D01*
X174333750Y-97435000D01*
X175133000Y-97435000D01*
X175133000Y-96833750D01*
X175387000Y-96833750D01*
X175387000Y-97435000D01*
X176186250Y-97435000D01*
X176345000Y-97276250D01*
X176345000Y-97183691D01*
X176248327Y-96950302D01*
X176069699Y-96771673D01*
X175836310Y-96675000D01*
X175545750Y-96675000D01*
X175387000Y-96833750D01*
X175133000Y-96833750D01*
X174974250Y-96675000D01*
X174683690Y-96675000D01*
X174450301Y-96771673D01*
X174271673Y-96950302D01*
X174175000Y-97183691D01*
X173283511Y-97183691D01*
X174987332Y-95479870D01*
X177463710Y-95479870D01*
X177463710Y-96178370D01*
X177507988Y-96413687D01*
X177647060Y-96629811D01*
X177859260Y-96774801D01*
X178111150Y-96825810D01*
X179109370Y-96825810D01*
X179344687Y-96781532D01*
X179560811Y-96642460D01*
X179597257Y-96589120D01*
X183620356Y-96589120D01*
X183646540Y-96629811D01*
X183858740Y-96774801D01*
X184110630Y-96825810D01*
X185108850Y-96825810D01*
X185344167Y-96781532D01*
X185560291Y-96642460D01*
X185596737Y-96589120D01*
X186110880Y-96589120D01*
X186401719Y-96531268D01*
X186648281Y-96366521D01*
X188099680Y-94915122D01*
X188145167Y-94915162D01*
X188488943Y-94773117D01*
X188752192Y-94510327D01*
X188894838Y-94166799D01*
X188895162Y-93794833D01*
X188753117Y-93451057D01*
X188490327Y-93187808D01*
X188146799Y-93045162D01*
X187774833Y-93044838D01*
X187431057Y-93186883D01*
X187167808Y-93449673D01*
X187025162Y-93793201D01*
X187025121Y-93840077D01*
X185796078Y-95069120D01*
X185599124Y-95069120D01*
X185572940Y-95028429D01*
X185360740Y-94883439D01*
X185108850Y-94832430D01*
X184110630Y-94832430D01*
X183875313Y-94876708D01*
X183659189Y-95015780D01*
X183622743Y-95069120D01*
X179599644Y-95069120D01*
X179573460Y-95028429D01*
X179361260Y-94883439D01*
X179109370Y-94832430D01*
X178111150Y-94832430D01*
X177875833Y-94876708D01*
X177659709Y-95015780D01*
X177514719Y-95227980D01*
X177463710Y-95479870D01*
X174987332Y-95479870D01*
X177576322Y-92890880D01*
X177620876Y-92890880D01*
X177647060Y-92931571D01*
X177859260Y-93076561D01*
X178111150Y-93127570D01*
X179109370Y-93127570D01*
X179344687Y-93083292D01*
X179560811Y-92944220D01*
X179597257Y-92890880D01*
X183620356Y-92890880D01*
X183646540Y-92931571D01*
X183858740Y-93076561D01*
X184110630Y-93127570D01*
X185108850Y-93127570D01*
X185344167Y-93083292D01*
X185560291Y-92944220D01*
X185705281Y-92732020D01*
X185756290Y-92480130D01*
X185756290Y-91781630D01*
X185712012Y-91546313D01*
X185572940Y-91330189D01*
X185360740Y-91185199D01*
X185108850Y-91134190D01*
X184110630Y-91134190D01*
X183875313Y-91178468D01*
X183659189Y-91317540D01*
X183622743Y-91370880D01*
X179599644Y-91370880D01*
X179573460Y-91330189D01*
X179361260Y-91185199D01*
X179109370Y-91134190D01*
X178111150Y-91134190D01*
X177875833Y-91178468D01*
X177659709Y-91317540D01*
X177623263Y-91370880D01*
X177261520Y-91370880D01*
X177018934Y-91419134D01*
X176970680Y-91428732D01*
X176724119Y-91593479D01*
X170691252Y-97626346D01*
X170364745Y-97561400D01*
X169995255Y-97561400D01*
X169421766Y-97675474D01*
X168935585Y-98000330D01*
X168610729Y-98486511D01*
X168496655Y-99060000D01*
X167767000Y-99060000D01*
X167767000Y-90932000D01*
X195453000Y-90932000D01*
X195453000Y-142113000D01*
M02*
